<svg xmlns="http://www.w3.org/2000/svg" width="720" height="360" viewBox="0 0 720 360">
  <!-- Window background -->
  <rect width="720" height="360" rx="10" fill="#1e1e2e"/>
  <!-- Title bar (browser chrome) -->
  <rect width="720" height="40" rx="10" fill="#313244"/>
  <rect y="20" width="720" height="20" fill="#313244"/>
  <!-- Dots -->
  <circle cx="20" cy="20" r="6" fill="#f38ba8"/>
  <circle cx="40" cy="20" r="6" fill="#f9e2af"/>
  <circle cx="60" cy="20" r="6" fill="#a6e3a1"/>
  <!-- Address bar -->
  <rect x="90" y="10" width="480" height="20" rx="4" fill="#45475a"/>
  <text x="330" y="24" text-anchor="middle" font-family="SF Mono,monospace" font-size="11" fill="#6c7086">localhost:8501</text>
  <!-- Sidebar -->
  <rect x="0" y="40" width="180" height="320" fill="#181825"/>
  <!-- Sidebar title -->
  <text x="90" y="75" text-anchor="middle" font-family="SF Mono,monospace" font-size="14" font-weight="bold" fill="#89b4fa">Hydro Reservoir</text>
  <text x="90" y="95" text-anchor="middle" font-family="SF Mono,monospace" font-size="10" fill="#6c7086">Cascade Hydropower Scheduling</text>
  <!-- Sidebar menu items -->
  <rect x="10" y="110" width="160" height="24" rx="4" fill="#313244"/>
  <text x="90" y="126" text-anchor="middle" font-family="SF Mono,monospace" font-size="11" fill="#a6e3a1">▶ 主功能</text>
  <text x="90" y="160" text-anchor="middle" font-family="SF Mono,monospace" font-size="11" fill="#6c7086">📊 结果查看</text>
  <text x="90" y="185" text-anchor="middle" font-family="SF Mono,monospace" font-size="11" fill="#6c7086">⚙ 参数设置</text>
  <!-- Main content area -->
  <rect x="180" y="40" width="540" height="320" fill="#1e1e2e"/>
  <!-- Content header -->
  <text x="220" y="80" font-family="SF Mono,monospace" font-size="16" font-weight="bold" fill="#cdd6f4">Cascade Hydropower Scheduling</text>
  <line x1="200" y1="92" x2="700" y2="92" stroke="#45475a" stroke-width="1"/>
  <!-- Dynamic content items -->
  <text x="40" y="200" font-family="SF Mono,Fira Code,monospace" font-size="13" fill="#cdd6f4">水库数量  3</text>
  <text x="40" y="228" font-family="SF Mono,Fira Code,monospace" font-size="13" fill="#cdd6f4">时步  ▼ 旬</text>
  <text x="40" y="256" font-family="SF Mono,Fira Code,monospace" font-size="13" fill="#cdd6f4">目标函数  最大发电量</text>
  <text x="40" y="284" font-family="SF Mono,Fira Code,monospace" font-size="13" fill="#cdd6f4">[开始优化]  [查看图表]</text>

  <!-- Bottom status bar -->
  <rect x="180" y="330" width="540" height="30" fill="#181825"/>
  <text x="220" y="349" font-family="SF Mono,monospace" font-size="10" fill="#6c7086">Python 3.11  |  Streamlit 1.36  |  MIT License</text>
</svg>